<mxfile host="app.diagrams.net" modified="2023-10-25T12:04:45.835Z" agent="Mozilla/5.0 (Macintosh; Intel Mac OS X 10_15_7) AppleWebKit/605.1.15 (KHTML, like Gecko) Version/17.0 Safari/605.1.15" etag="Aieqdj055OZJbtAPyCOK" version="22.0.8" type="github">
  <diagram name="Page-1" id="RkxAm1atV-8N18UrhG3N">
    <mxGraphModel dx="1207" dy="813" grid="1" gridSize="10" guides="1" tooltips="1" connect="1" arrows="1" fold="1" page="1" pageScale="1" pageWidth="827" pageHeight="1169" math="0" shadow="0">
      <root>
        <mxCell id="0" />
        <mxCell id="1" parent="0" />
        <mxCell id="daa_8g_dzIqQVXAkmfsr-1" value="HARDWARE" style="shape=cube;whiteSpace=wrap;html=1;boundedLbl=1;backgroundOutline=1;darkOpacity=0.05;darkOpacity2=0.1;size=10;" vertex="1" parent="1">
          <mxGeometry x="130" y="90" width="250" height="50" as="geometry" />
        </mxCell>
        <mxCell id="daa_8g_dzIqQVXAkmfsr-2" value="" style="shape=cube;whiteSpace=wrap;html=1;boundedLbl=1;backgroundOutline=1;darkOpacity=0.05;darkOpacity2=0.1;size=10;" vertex="1" parent="1">
          <mxGeometry x="130" y="145" width="250" height="145" as="geometry" />
        </mxCell>
        <mxCell id="daa_8g_dzIqQVXAkmfsr-3" value="DOCKER DESK" style="shape=cube;whiteSpace=wrap;html=1;boundedLbl=1;backgroundOutline=1;darkOpacity=0.05;darkOpacity2=0.1;size=10;" vertex="1" parent="1">
          <mxGeometry x="130" y="300" width="250" height="50" as="geometry" />
        </mxCell>
        <mxCell id="daa_8g_dzIqQVXAkmfsr-4" value="HYPER V" style="shape=cube;whiteSpace=wrap;html=1;boundedLbl=1;backgroundOutline=1;darkOpacity=0.05;darkOpacity2=0.1;size=10;" vertex="1" parent="1">
          <mxGeometry x="130" y="360" width="250" height="50" as="geometry" />
        </mxCell>
        <mxCell id="daa_8g_dzIqQVXAkmfsr-5" value="" style="shape=cube;whiteSpace=wrap;html=1;boundedLbl=1;backgroundOutline=1;darkOpacity=0.05;darkOpacity2=0.1;size=10;" vertex="1" parent="1">
          <mxGeometry x="130" y="450" width="250" height="410" as="geometry" />
        </mxCell>
        <mxCell id="daa_8g_dzIqQVXAkmfsr-6" value="" style="shape=cube;whiteSpace=wrap;html=1;boundedLbl=1;backgroundOutline=1;darkOpacity=0.05;darkOpacity2=0.1;size=10;" vertex="1" parent="1">
          <mxGeometry x="150" y="470" width="220" height="120" as="geometry" />
        </mxCell>
        <mxCell id="daa_8g_dzIqQVXAkmfsr-7" value="KERN LINUX" style="rounded=0;whiteSpace=wrap;html=1;" vertex="1" parent="1">
          <mxGeometry x="180" y="510" width="170" height="30" as="geometry" />
        </mxCell>
        <mxCell id="daa_8g_dzIqQVXAkmfsr-8" value="APP SYS" style="rounded=0;whiteSpace=wrap;html=1;" vertex="1" parent="1">
          <mxGeometry x="180" y="550" width="170" height="30" as="geometry" />
        </mxCell>
        <mxCell id="daa_8g_dzIqQVXAkmfsr-9" value="OS" style="text;html=1;strokeColor=none;fillColor=none;align=center;verticalAlign=middle;whiteSpace=wrap;rounded=0;" vertex="1" parent="1">
          <mxGeometry x="230" y="480" width="60" height="30" as="geometry" />
        </mxCell>
        <mxCell id="daa_8g_dzIqQVXAkmfsr-10" value="KERN MACOS" style="rounded=0;whiteSpace=wrap;html=1;" vertex="1" parent="1">
          <mxGeometry x="175" y="202.5" width="170" height="30" as="geometry" />
        </mxCell>
        <mxCell id="daa_8g_dzIqQVXAkmfsr-11" value="APP SYS" style="rounded=0;whiteSpace=wrap;html=1;" vertex="1" parent="1">
          <mxGeometry x="175" y="240" width="170" height="30" as="geometry" />
        </mxCell>
        <mxCell id="daa_8g_dzIqQVXAkmfsr-12" value="OS" style="text;html=1;strokeColor=none;fillColor=none;align=center;verticalAlign=middle;whiteSpace=wrap;rounded=0;" vertex="1" parent="1">
          <mxGeometry x="230" y="160" width="60" height="30" as="geometry" />
        </mxCell>
        <mxCell id="daa_8g_dzIqQVXAkmfsr-13" value="" style="shape=cube;whiteSpace=wrap;html=1;boundedLbl=1;backgroundOutline=1;darkOpacity=0.05;darkOpacity2=0.1;size=10;" vertex="1" parent="1">
          <mxGeometry x="150" y="643.62" width="220" height="196.38" as="geometry" />
        </mxCell>
        <mxCell id="daa_8g_dzIqQVXAkmfsr-14" value="LIB" style="rounded=0;whiteSpace=wrap;html=1;" vertex="1" parent="1">
          <mxGeometry x="170" y="660" width="190" height="30" as="geometry" />
        </mxCell>
        <mxCell id="daa_8g_dzIqQVXAkmfsr-15" value="APP" style="rounded=0;whiteSpace=wrap;html=1;" vertex="1" parent="1">
          <mxGeometry x="170" y="700" width="190" height="130" as="geometry" />
        </mxCell>
        <mxCell id="daa_8g_dzIqQVXAkmfsr-16" value="MAC OS" style="text;html=1;strokeColor=none;fillColor=none;align=center;verticalAlign=middle;whiteSpace=wrap;rounded=0;" vertex="1" parent="1">
          <mxGeometry x="225" y="40" width="60" height="30" as="geometry" />
        </mxCell>
        <mxCell id="daa_8g_dzIqQVXAkmfsr-17" value="HARDWARE" style="shape=cube;whiteSpace=wrap;html=1;boundedLbl=1;backgroundOutline=1;darkOpacity=0.05;darkOpacity2=0.1;size=10;" vertex="1" parent="1">
          <mxGeometry x="460" y="95" width="250" height="50" as="geometry" />
        </mxCell>
        <mxCell id="daa_8g_dzIqQVXAkmfsr-18" value="" style="shape=cube;whiteSpace=wrap;html=1;boundedLbl=1;backgroundOutline=1;darkOpacity=0.05;darkOpacity2=0.1;size=10;" vertex="1" parent="1">
          <mxGeometry x="460" y="155" width="250" height="145" as="geometry" />
        </mxCell>
        <mxCell id="daa_8g_dzIqQVXAkmfsr-19" value="KERN LINUX" style="rounded=0;whiteSpace=wrap;html=1;" vertex="1" parent="1">
          <mxGeometry x="505" y="212.5" width="170" height="30" as="geometry" />
        </mxCell>
        <mxCell id="daa_8g_dzIqQVXAkmfsr-20" value="APP SYS" style="rounded=0;whiteSpace=wrap;html=1;" vertex="1" parent="1">
          <mxGeometry x="505" y="250" width="170" height="30" as="geometry" />
        </mxCell>
        <mxCell id="daa_8g_dzIqQVXAkmfsr-21" value="OS" style="text;html=1;strokeColor=none;fillColor=none;align=center;verticalAlign=middle;whiteSpace=wrap;rounded=0;" vertex="1" parent="1">
          <mxGeometry x="560" y="170" width="60" height="30" as="geometry" />
        </mxCell>
        <mxCell id="daa_8g_dzIqQVXAkmfsr-22" value="" style="shape=cube;whiteSpace=wrap;html=1;boundedLbl=1;backgroundOutline=1;darkOpacity=0.05;darkOpacity2=0.1;size=10;" vertex="1" parent="1">
          <mxGeometry x="460" y="370" width="250" height="490" as="geometry" />
        </mxCell>
        <mxCell id="daa_8g_dzIqQVXAkmfsr-23" value="DOCKER" style="shape=cube;whiteSpace=wrap;html=1;boundedLbl=1;backgroundOutline=1;darkOpacity=0.05;darkOpacity2=0.1;size=10;" vertex="1" parent="1">
          <mxGeometry x="460" y="310" width="250" height="50" as="geometry" />
        </mxCell>
        <mxCell id="daa_8g_dzIqQVXAkmfsr-24" value="LIB" style="rounded=0;whiteSpace=wrap;html=1;" vertex="1" parent="1">
          <mxGeometry x="490" y="390" width="90" height="30" as="geometry" />
        </mxCell>
        <mxCell id="daa_8g_dzIqQVXAkmfsr-25" value="LIB" style="rounded=0;whiteSpace=wrap;html=1;" vertex="1" parent="1">
          <mxGeometry x="600" y="390" width="90" height="30" as="geometry" />
        </mxCell>
        <mxCell id="daa_8g_dzIqQVXAkmfsr-26" value="APP" style="rounded=0;whiteSpace=wrap;html=1;" vertex="1" parent="1">
          <mxGeometry x="490" y="430" width="90" height="410" as="geometry" />
        </mxCell>
        <mxCell id="daa_8g_dzIqQVXAkmfsr-27" value="APP" style="rounded=0;whiteSpace=wrap;html=1;" vertex="1" parent="1">
          <mxGeometry x="600" y="430" width="90" height="410" as="geometry" />
        </mxCell>
        <mxCell id="daa_8g_dzIqQVXAkmfsr-28" value="DOCKER" style="shape=cube;whiteSpace=wrap;html=1;boundedLbl=1;backgroundOutline=1;darkOpacity=0.05;darkOpacity2=0.1;size=10;" vertex="1" parent="1">
          <mxGeometry x="150" y="592.25" width="220" height="47.75" as="geometry" />
        </mxCell>
        <mxCell id="daa_8g_dzIqQVXAkmfsr-29" value="MAC OS" style="rounded=0;whiteSpace=wrap;html=1;" vertex="1" parent="1">
          <mxGeometry x="130" y="25" width="250" height="55" as="geometry" />
        </mxCell>
        <mxCell id="daa_8g_dzIqQVXAkmfsr-30" value="LINUX" style="rounded=0;whiteSpace=wrap;html=1;" vertex="1" parent="1">
          <mxGeometry x="460" y="25" width="250" height="55" as="geometry" />
        </mxCell>
        <mxCell id="daa_8g_dzIqQVXAkmfsr-31" value="VIRTUAL MACHINE" style="rounded=0;whiteSpace=wrap;html=1;" vertex="1" parent="1">
          <mxGeometry x="130" y="420" width="250" height="20" as="geometry" />
        </mxCell>
      </root>
    </mxGraphModel>
  </diagram>
</mxfile>
